<?xml version="1.0" standalone="no"?>
<!DOCTYPE svg PUBLIC "-//W3C//DTD SVG 20010904//EN"
 "http://www.w3.org/TR/2001/REC-SVG-20010904/DTD/svg10.dtd">
<svg version="1.0" xmlns="http://www.w3.org/2000/svg"
 width="26px" height="24px" viewBox="0 0 182.000000 168.000000"
 preserveAspectRatio="xMidYMid meet">

<g transform="translate(0.000000,168.000000) scale(0.100000,-0.100000)"
fill="#000000" stroke="none">
<path d="M288 1418 c-63 -36 -63 -36 -63 -518 0 -404 1 -437 18 -462 38 -56
59 -62 223 -66 l152 -4 6 -46 c11 -83 8 -82 266 -82 258 0 258 0 267 84 l5 44
152 4 c164 4 186 10 222 66 23 35 34 233 14 257 -15 18 -101 20 -118 3 -8 -8
-12 -45 -12 -100 l0 -88 -530 0 -530 0 0 394 c0 350 2 395 16 400 9 3 128 6
265 6 l249 0 0 65 0 65 -282 0 c-271 0 -285 -1 -320 -22z"/>
<path d="M1182 1420 c-21 -20 -22 -28 -22 -218 0 -108 -4 -203 -9 -211 -7 -11
-23 0 -70 48 -67 68 -103 80 -141 46 -42 -38 -29 -62 118 -208 115 -115 142
-137 167 -137 25 0 52 22 168 138 145 146 159 169 117 207 -37 33 -67 23 -139
-49 -37 -37 -70 -63 -74 -60 -4 4 -7 100 -7 214 0 203 0 207 -23 228 -29 27
-57 28 -85 2z"/>
</g>
</svg>
